<svg id="Layer_1" data-name="Layer 1" xmlns="http://www.w3.org/2000/svg" viewBox="0 0 278.74 308.22"><path d="M246.19,27.22H227.35V11.41A11.41,11.41,0,0,0,215.94,0h-6.69a11.41,11.41,0,0,0-11.41,11.41V27.22H80.89V11.41A11.4,11.4,0,0,0,69.49,0h-6.7a11.4,11.4,0,0,0-11.4,11.41V27.22H32.55A32.55,32.55,0,0,0,0,59.77V74.85H278.74V59.77A32.55,32.55,0,0,0,246.19,27.22Z"/><path d="M0,275.67a32.55,32.55,0,0,0,32.55,32.55H246.19a32.55,32.55,0,0,0,32.55-32.55V97.27H0ZM79.07,174.51h27.31a12.91,12.91,0,0,0,12.28-8.93l8.44-26c3.86-11.89,20.68-11.89,24.54,0l8.44,26a12.91,12.91,0,0,0,12.28,8.93h27.31c12.5,0,17.7,16,7.58,23.34L185.16,213.9a12.89,12.89,0,0,0-4.69,14.43l8.44,26c3.86,11.89-9.75,21.77-19.86,14.42L147,252.68a12.91,12.91,0,0,0-15.18,0l-22.09,16.05C99.58,276.08,86,266.2,89.83,254.31l8.44-26a12.89,12.89,0,0,0-4.69-14.43L71.49,197.85C61.37,190.5,66.57,174.51,79.07,174.51Z"/></svg>